<?xml version="1.0" encoding="utf-8"?>
<!-- Generator: Adobe Illustrator 19.1.0, SVG Export Plug-In . SVG Version: 6.00 Build 0)  -->
<svg version="1.1" id="Layer_1" xmlns="http://www.w3.org/2000/svg" xmlns:xlink="http://www.w3.org/1999/xlink" x="0px" y="0px"
	 viewBox="0 0 576 432" enable-background="new 0 0 576 432" xml:space="preserve">
<g>
	<path fill="#04405A" d="M67.9,250.6H45.4v-14.3h61.4v14.3H84.2v56H67.9V250.6z"/>
	<path fill="#04405A" d="M119.3,236.4h55.8v13.8h-39.7v14.3h35v13.8h-35v14.8h40.2v13.8h-56.3V236.4z"/>
	<path fill="#04405A" d="M225,307.9c-5.4,0-10.5-0.9-15.1-2.8c-4.7-1.9-8.7-4.4-12.1-7.7c-3.4-3.2-6-7.1-7.9-11.5
		c-1.9-4.4-2.9-9.1-2.9-14.2v-0.2c0-5,1-9.7,2.9-14.1c1.9-4.4,4.6-8.2,7.9-11.5c3.4-3.3,7.4-5.9,12.2-7.8c4.7-1.9,10-2.9,15.7-2.9
		c3.5,0,6.6,0.3,9.5,0.8c2.9,0.5,5.5,1.3,7.8,2.2c2.3,0.9,4.5,2.1,6.5,3.4c2,1.3,3.8,2.8,5.5,4.4l-10.4,11.3
		c-2.9-2.5-5.8-4.4-8.8-5.8c-3-1.4-6.4-2.1-10.1-2.1c-3.1,0-6,0.6-8.6,1.7c-2.6,1.1-4.9,2.7-6.8,4.7c-1.9,2-3.4,4.3-4.4,7
		c-1.1,2.6-1.6,5.5-1.6,8.5v0.2c0,3,0.5,5.9,1.6,8.5c1.1,2.7,2.5,5,4.4,7c1.9,2,4.1,3.6,6.8,4.8c2.6,1.2,5.6,1.8,8.7,1.8
		c4.2,0,7.8-0.7,10.7-2.2c2.9-1.5,5.8-3.5,8.7-6l10.4,9.9c-1.9,1.9-3.9,3.7-5.9,5.2c-2,1.5-4.3,2.9-6.7,4c-2.4,1.1-5.1,1.9-8,2.5
		C231.9,307.6,228.6,307.9,225,307.9z"/>
	<path fill="#04405A" d="M268.4,236.4h16.3v27.8h30.1v-27.8h16.3v70.3h-16.3v-28.2h-30.1v28.2h-16.3V236.4z"/>
	<path fill="#04405A" d="M351,236.4h5.5v65.5h43.5v4.8h-49V236.4z"/>
	<path fill="#04405A" d="M411,291.8v-0.2c0-10.6,9.6-16.7,23.6-16.7c7.5,0,12.7,0.9,17.9,2.2v-2.2c0-10.3-6.7-15.7-17.8-15.7
		c-6.6,0-12,1.7-17,4.1l-1.9-4.3c5.9-2.6,11.8-4.4,19.2-4.4c7.3,0,13.1,1.9,17.1,5.6c3.6,3.4,5.5,8.1,5.5,14.5v31.9h-5.1v-8.5
		c-3.7,4.9-10.4,9.7-20.7,9.7C421.8,307.9,411,302.5,411,291.8z M452.6,287.5v-5.8c-4.6-1.1-10.6-2.3-18.3-2.3
		c-11.4,0-17.8,4.8-17.8,12v0.2c0,7.4,7.4,11.8,15.7,11.8C443.2,303.3,452.6,296.8,452.6,287.5z"/>
	<path fill="#04405A" d="M481.4,295.6v11h-5.2v-73.3h5.2v33.5c4.7-6.7,11.5-12.7,22.2-12.7c13,0,26.3,9.9,26.3,26.6v0.2
		c0,16.7-13.2,26.8-26.3,26.8C492.8,307.9,485.9,302.1,481.4,295.6z M524.3,281.3v-0.2c0-13.5-9.9-22.1-21.2-22.1
		c-11.2,0-22,8.9-22,22v0.2c0,13.2,10.8,22,22,22C514.9,303.2,524.3,295,524.3,281.3z"/>
</g>
<g>
	<g>
		<path fill="#04405A" d="M299.8,215.2c-51.6,0-93.6-40.5-93.6-90.4c0-49.8,42-90.4,93.6-90.4c51.6,0,93.6,40.5,93.6,90.4
			C393.3,174.6,351.4,215.2,299.8,215.2z M299.8,40.1c-48.3,0-87.6,38-87.6,84.6c0,46.7,39.3,84.6,87.6,84.6
			c48.3,0,87.6-38,87.6-84.6C387.4,78.1,348.1,40.1,299.8,40.1z"/>
	</g>
	<g>
		<rect x="233.8" y="83.7" fill="#04405A" width="131.9" height="6.6"/>
	</g>
	<g>
		<rect x="283.3" y="52.5" fill="#04405A" width="6.8" height="144.6"/>
	</g>
	<g>
		<polygon fill="#04405A" points="360.3,174.1 315.5,174.1 315.5,54 322.3,54 322.3,167.6 360.3,167.6 		"/>
	</g>
	<g>
		<path fill="#04405A" d="M286.7,53.3c-3.9,0-7-3-7-6.8c0-3.7,3.2-6.8,7-6.8c3.9,0,7,3,7,6.8C293.7,50.3,290.6,53.3,286.7,53.3z
			 M286.7,41.4c-2.9,0-5.3,2.3-5.3,5.1c0,2.8,2.4,5.1,5.3,5.1c2.9,0,5.3-2.3,5.3-5.1C292,43.7,289.6,41.4,286.7,41.4z"/>
	</g>
	<g>
		<path fill="#04405A" d="M286.7,209.8c-3.9,0-7-3-7-6.8c0-3.7,3.2-6.8,7-6.8c3.9,0,7,3,7,6.8C293.7,206.8,290.6,209.8,286.7,209.8z
			 M286.7,197.9c-2.9,0-5.3,2.3-5.3,5.1c0,2.8,2.4,5.1,5.3,5.1c2.9,0,5.3-2.3,5.3-5.1C292,200.2,289.6,197.9,286.7,197.9z"/>
	</g>
	<g>
		<path fill="#04405A" d="M318.9,54.8c-3.9,0-7-3-7-6.8c0-3.7,3.1-6.8,7-6.8c3.9,0,7,3,7,6.8C325.9,51.8,322.8,54.8,318.9,54.8z
			 M318.9,42.9c-2.9,0-5.3,2.3-5.3,5.1c0,2.8,2.4,5.1,5.3,5.1c2.9,0,5.3-2.3,5.3-5.1C324.2,45.2,321.9,42.9,318.9,42.9z"/>
	</g>
	<g>
		<path fill="#04405A" d="M366.5,177.6c-3.9,0-7-3-7-6.8c0-3.7,3.1-6.8,7-6.8c3.9,0,7,3,7,6.8C373.5,174.6,370.4,177.6,366.5,177.6z
			 M366.5,165.7c-2.9,0-5.3,2.3-5.3,5.1c0,2.8,2.4,5.1,5.3,5.1c2.9,0,5.3-2.3,5.3-5.1C371.8,168,369.4,165.7,366.5,165.7z"/>
	</g>
	<g>
		<path fill="#04405A" d="M227.6,93.8c-3.9,0-7-3-7-6.8c0-3.7,3.2-6.8,7-6.8c3.9,0,7,3,7,6.8C234.7,90.7,231.5,93.8,227.6,93.8z
			 M227.6,81.8c-2.9,0-5.3,2.3-5.3,5.1c0,2.8,2.4,5.1,5.3,5.1c2.9,0,5.3-2.3,5.3-5.1C233,84.2,230.6,81.8,227.6,81.8z"/>
	</g>
	<g>
		<path fill="#04405A" d="M259.9,190.5c-2.6,0-4.8-2.1-4.8-4.6c0-2.6,2.2-4.6,4.8-4.6c2.6,0,4.8,2.1,4.8,4.6
			C264.7,188.5,262.6,190.5,259.9,190.5z M259.9,182.1c-2.2,0-3.9,1.7-3.9,3.8c0,2.1,1.8,3.8,3.9,3.8c2.2,0,3.9-1.7,3.9-3.8
			C263.9,183.8,262.1,182.1,259.9,182.1z"/>
	</g>
	<g>
		<path fill="#04405A" d="M354.4,102.5c-2.6,0-4.8-2.1-4.8-4.6c0-2.6,2.1-4.6,4.8-4.6c2.6,0,4.8,2.1,4.8,4.6
			C359.2,100.4,357,102.5,354.4,102.5z M354.4,94.1c-2.2,0-3.9,1.7-3.9,3.8s1.8,3.8,3.9,3.8c2.2,0,3.9-1.7,3.9-3.8
			S356.6,94.1,354.4,94.1z"/>
	</g>
	<g>
		<path fill="#04405A" d="M371.8,93.8c-3.9,0-7-3-7-6.8c0-3.7,3.1-6.8,7-6.8c3.9,0,7,3,7,6.8C378.8,90.7,375.7,93.8,371.8,93.8z
			 M371.8,81.8c-2.9,0-5.3,2.3-5.3,5.1c0,2.8,2.4,5.1,5.3,5.1c2.9,0,5.3-2.3,5.3-5.1C377.1,84.2,374.8,81.8,371.8,81.8z"/>
	</g>
	<g>
		<path fill="#04405A" d="M277.9,207.2h-1.7v-82.5c0-7.7-2.8-10.2-2.8-10.2c0,0-7.6-5.7-12.1-8.6c-3.1-2-9-1.6-9-1.6l-37.5,0v-1.6
			h37.4c0.2,0,6.4-0.4,10,1.9c4.5,2.9,12.1,8.6,12.2,8.7c0.2,0.1,3.4,2.9,3.4,11.5V207.2z"/>
	</g>
	<g>
		<path fill="#04405A" d="M269.4,207.3h-1.7v-75.4c0-7.7-2.8-10.2-2.8-10.2c0,0-7.7-5.7-12.1-8.6c-3.1-2-9-1.6-9-1.6l-34.3,0l0-1.6
			l34.3,0c0.2,0,6.4-0.4,10,1.9c4.5,2.9,12.1,8.6,12.2,8.7c0.2,0.1,3.4,2.9,3.4,11.5V207.3z"/>
	</g>
	<g>
		<path fill="#04405A" d="M260.8,181.7h-1.7v-43c0-7.7-2.8-10.2-2.8-10.2c0,0-7.6-5.7-12.1-8.6c-3.1-2-9-1.6-9-1.6l-26,0l0-1.6
			l25.9,0c0.2,0,6.4-0.4,10.1,1.9c4.5,2.9,12.1,8.6,12.2,8.7c0.2,0.1,3.4,2.9,3.4,11.5V181.7z"/>
	</g>
	<g>
		<rect x="294.8" y="70.1" fill="#04405A" width="1.7" height="142.1"/>
	</g>
	<g>
		<rect x="302.5" y="62.7" fill="#04405A" width="1.7" height="149.5"/>
	</g>
	<g>
		<path fill="#04405A" d="M370.9,180.3h-49.5c-4.4,0-7.6-1.1-9.7-3.3c-2.5-2.6-2.3-5.9-2.3-6l0-114.9h1.7l0,114.9
			c0,0.1-0.2,2.8,1.8,4.9c1.7,1.8,4.6,2.7,8.4,2.7h49.5V180.3z"/>
	</g>
	<g>
		<path fill="#04405A" d="M311.1,212.3h-1.7l0-18.5c0-0.1-0.3-3.3,2.3-6c2.1-2.2,5.3-3.3,9.7-3.3h43.8v1.6h-43.8
			c-3.9,0-6.7,0.9-8.4,2.7c-2,2.1-1.8,4.7-1.8,4.8L311.1,212.3z"/>
	</g>
	<g>
		<path fill="#04405A" d="M252.5,97.1c-0.1,0-0.2,0-0.2,0h-37.4v-1.6h37.5c0.1,0,4.1,0.2,9-4.5c5.4-5.2,12.8-14.4,12.9-14.5
			c0,0,1.1-1.3,1.1-4.2V42.1h1.7v30.1c0,3.5-1.3,5.1-1.5,5.3c0,0.1-7.5,9.3-13,14.6C257.6,96.8,253.4,97.1,252.5,97.1z"/>
	</g>
	<g>
		<path fill="#04405A" d="M337.1,159.8c-2.2,0-4-0.7-5.2-2c-2.5-2.7-2.1-7-2.1-7.2l0-105.5h1.7v105.6c0,0.1-0.4,3.9,1.7,6
			c1,1,2.3,1.5,4.1,1.5c7.4-0.1,44.5,0,44.9,0l0,1.6C381.7,159.8,344.6,159.7,337.1,159.8C337.2,159.8,337.2,159.8,337.1,159.8z"/>
	</g>
	<g>
		<path fill="#04405A" d="M385.8,153.2c-0.3,0-33.4-0.1-40.7,0c-2.3,0-4-0.7-5.3-2c-2.5-2.7-2.1-7-2.1-7.2l0-98.9h1.7v99
			c0,0.1-0.4,3.9,1.7,6c1,1,2.3,1.5,4.1,1.5c7.4-0.1,40.4,0,40.7,0L385.8,153.2z"/>
	</g>
	<g>
		<path fill="#04405A" d="M387.8,146.2c-0.3,0-27.8-0.1-35.1,0c-2.2,0-4-0.7-5.3-2c-2.5-2.7-2.1-7-2.1-7.2V49h1.7v88.1
			c0,0.1-0.4,3.9,1.7,6c1,1,2.3,1.5,4.1,1.5c7.4-0.1,34.9,0,35.1,0L387.8,146.2z"/>
	</g>
	<g>
		<path fill="#04405A" d="M360.9,139.2c-2.2,0-4-0.7-5.2-2c-2.5-2.7-2.1-7-2.1-7.2l0-28h1.7v28.1c0,0.1-0.3,3.9,1.7,6
			c0.9,1,2.3,1.5,4,1.5c0,0,0.1,0,0.1,0c7.4-0.1,28.1,0,28.3,0l0,1.6C389.1,139.2,368.4,139.1,360.9,139.2
			C361,139.2,361,139.2,360.9,139.2z"/>
	</g>
</g>
<g>
	<path fill="#04405A" d="M226.8,358.5v-4.2c-1.6,2.4-4.5,4.8-9,4.8c-4.4,0-9.1-2.7-9.1-8v-0.1c0-5.3,4.2-8.3,10.3-8.3
		c3.3,0,5.5,0.4,7.8,1.1v-1.1c0-5.1-2.9-7.8-7.7-7.8c-2.9,0-5.2,0.8-7.4,2l-0.8-2.1c2.6-1.3,5.1-2.2,8.3-2.2c6,0,9.8,3.4,9.8,9.9
		v15.8H226.8z M226.9,346.1c-2-0.5-4.6-1.1-8-1.1c-5,0-7.7,2.4-7.7,5.9v0.1c0,3.7,3.2,5.8,6.8,5.8c4.8,0,8.9-3.2,8.9-7.8V346.1z"/>
	<path fill="#04405A" d="M244.7,359c-3.6,0-6.6-2.1-6.6-7v-16.6h-3.4v-2.2h3.4v-8.1h2.3v8.1h8.2v2.2h-8.2v16.4c0,3.6,2,4.9,4.7,4.9
		c1.2,0,2.1-0.2,3.5-0.9v2.3C247.4,358.7,246.2,359,244.7,359z"/>
	<path fill="#04405A" d="M293.9,358.5v-22.7l-9.1,14.9h-0.2l-9-14.7v22.6h-7v-34.8h7.6l8.5,14.7l8.5-14.7h7.6v34.8H293.9z"/>
	<path fill="#04405A" d="M319.5,359.1c-6.8,0-12-6.1-12-13.2v-0.1c0-7.1,5.2-13.3,12-13.3c4.4,0,7.2,2.2,9.4,4.7l-1.6,1.8
		c-2-2.2-4.3-4.2-7.8-4.2c-5.3,0-9.5,4.8-9.5,10.9v0.1c0,6.1,4.3,11,9.7,11c3.3,0,5.9-1.8,7.9-4.2l1.6,1.5
		C326.7,357,323.8,359.1,319.5,359.1z"/>
	<path fill="#04405A" d="M335.5,326.5v-3.3h2.8v3.3H335.5z M335.7,358.5v-25.4h2.3v25.4H335.7z"/>
	<path fill="#04405A" d="M354.7,359c-3.6,0-6.6-2.1-6.6-7v-16.6h-3.4v-2.2h3.4v-8.1h2.3v8.1h8.2v2.2h-8.2v16.4c0,3.6,2,4.9,4.7,4.9
		c1.2,0,2.1-0.2,3.5-0.9v2.3C357.3,358.7,356.2,359,354.7,359z"/>
	<path fill="#04405A" d="M376,359.4c-2.1,5.3-4.5,7.2-7.8,7.2c-1.8,0-3.1-0.3-4.7-1.1l0.8-2.1c1.2,0.6,2.3,0.9,4,0.9
		c2.4,0,4.1-1.5,5.8-6l-11.3-25.2h2.6l9.8,22.7l8.5-22.7h2.5L376,359.4z"/>
</g>
</svg>
