<svg id="Base" xmlns="http://www.w3.org/2000/svg" viewBox="0 0 264.35 99.42"><defs><style>.cls-1,.cls-5{fill:none;}.cls-1,.cls-4,.cls-5,.cls-6{stroke:#58595b;stroke-miterlimit:10;}.cls-1{stroke-width:4px;}.cls-2{fill:#efbf1b;}.cls-3{fill:#ef3f23;}.cls-4,.cls-8{fill:#fff;}.cls-6{fill:#58595b;}.cls-7{fill:#37afba;}</style></defs><title>Commercialization Map_final2015_REVISED_v4_WEB</title><polyline class="cls-1" points="75.94 2 65.94 2 65.94 58.85 75.94 58.85"/><polyline class="cls-1" points="189.34 2 199.34 2 199.34 58.85 189.34 58.85"/><path class="cls-2" d="M372.82,168.07l5.51-1.86,0.74,2.25-5.47,1.86,3.45,4.62-1.9,1.48-3.49-4.77-3.38,4.77-1.94-1.48,3.38-4.62-5.47-1.86,0.74-2.25,5.51,1.86v-5.78h2.33v5.78Z" transform="translate(-289.31 -154.42)"/><path class="cls-3" d="M376.37,173h1.25v3.82h4.77V173h1.25v9.21h-1.25V178h-4.77v4.21h-1.25V173Z" transform="translate(-289.31 -154.42)"/><path class="cls-3" d="M385.73,176.78a3.24,3.24,0,0,1,1.14-.68,3.92,3.92,0,0,1,1.3-.23,3.58,3.58,0,0,1,1.16.17,2.26,2.26,0,0,1,.8.46,1.79,1.79,0,0,1,.46.66,2,2,0,0,1,.15.77v3.15q0,0.33,0,.6c0,0.18,0,.36,0,0.52h-1q0-.47,0-0.94h0a2.23,2.23,0,0,1-.92.84,2.9,2.9,0,0,1-1.24.25,2.83,2.83,0,0,1-.82-0.12,2,2,0,0,1-.68-0.35,1.68,1.68,0,0,1-.46-0.58,1.8,1.8,0,0,1-.17-0.8,1.78,1.78,0,0,1,.27-1,2,2,0,0,1,.73-0.66,3.48,3.48,0,0,1,1.08-.36,7.52,7.52,0,0,1,1.32-.11h0.86v-0.26a1.29,1.29,0,0,0-.09-0.47,1.26,1.26,0,0,0-.27-0.42,1.29,1.29,0,0,0-.46-0.3,1.72,1.72,0,0,0-.65-0.11,2.37,2.37,0,0,0-.59.07,2.56,2.56,0,0,0-.46.16,2,2,0,0,0-.38.23l-0.33.25Zm3.3,2.44a8.22,8.22,0,0,0-.85,0,3.36,3.36,0,0,0-.79.17,1.54,1.54,0,0,0-.58.37,0.82,0.82,0,0,0-.23.6,0.85,0.85,0,0,0,.36.77,1.75,1.75,0,0,0,1,.23,1.86,1.86,0,0,0,.82-0.16,1.52,1.52,0,0,0,.55-0.42,1.65,1.65,0,0,0,.3-0.58,2.3,2.3,0,0,0,.09-0.63v-0.39H389Z" transform="translate(-289.31 -154.42)"/><path class="cls-3" d="M391.71,176h1.35l1.85,4.72,1.77-4.72h1.25l-2.42,6.16h-1.29Z" transform="translate(-289.31 -154.42)"/><path class="cls-3" d="M399.84,179.54a1.55,1.55,0,0,0,.18.73,1.83,1.83,0,0,0,.46.57,2.14,2.14,0,0,0,.66.36,2.4,2.4,0,0,0,.78.13,1.75,1.75,0,0,0,.95-0.25,3.08,3.08,0,0,0,.74-0.67l0.88,0.68a3.25,3.25,0,0,1-2.73,1.26,3.38,3.38,0,0,1-1.32-.25,2.86,2.86,0,0,1-1-.68,3,3,0,0,1-.63-1,3.63,3.63,0,0,1-.22-1.28,3.36,3.36,0,0,1,.24-1.28,3.17,3.17,0,0,1,.66-1,3,3,0,0,1,1-.68,3.23,3.23,0,0,1,1.27-.25,3.06,3.06,0,0,1,1.38.29,2.76,2.76,0,0,1,.93.75,3,3,0,0,1,.53,1,4.33,4.33,0,0,1,.16,1.18v0.42h-4.94Zm3.69-.94a2.47,2.47,0,0,0-.12-0.72,1.58,1.58,0,0,0-.33-0.57,1.54,1.54,0,0,0-.55-0.38,2,2,0,0,0-.77-0.14,1.89,1.89,0,0,0-.79.16,1.93,1.93,0,0,0-1,1,1.59,1.59,0,0,0-.14.63h3.69Z" transform="translate(-289.31 -154.42)"/><path class="cls-3" d="M409.82,176.78a3.24,3.24,0,0,1,1.14-.68,3.92,3.92,0,0,1,1.3-.23,3.58,3.58,0,0,1,1.16.17,2.26,2.26,0,0,1,.8.46,1.79,1.79,0,0,1,.46.66,2,2,0,0,1,.15.77v3.15q0,0.33,0,.6c0,0.18,0,.36,0,0.52h-1q0-.47,0-0.94h0a2.23,2.23,0,0,1-.92.84,2.9,2.9,0,0,1-1.24.25,2.83,2.83,0,0,1-.82-0.12,2,2,0,0,1-.68-0.35,1.68,1.68,0,0,1-.46-0.58,1.8,1.8,0,0,1-.17-0.8,1.78,1.78,0,0,1,.27-1,2,2,0,0,1,.73-0.66,3.48,3.48,0,0,1,1.08-.36,7.52,7.52,0,0,1,1.32-.11h0.86v-0.26a1.29,1.29,0,0,0-.09-0.47,1.26,1.26,0,0,0-.27-0.42,1.29,1.29,0,0,0-.46-0.3,1.72,1.72,0,0,0-.65-0.11,2.37,2.37,0,0,0-.59.07,2.56,2.56,0,0,0-.46.16,2,2,0,0,0-.38.23l-0.33.25Zm3.3,2.44a8.22,8.22,0,0,0-.85,0,3.36,3.36,0,0,0-.79.17,1.54,1.54,0,0,0-.58.37,0.82,0.82,0,0,0-.23.6,0.85,0.85,0,0,0,.36.77,1.75,1.75,0,0,0,1,.23,1.86,1.86,0,0,0,.82-0.16,1.52,1.52,0,0,0,.55-0.42,1.65,1.65,0,0,0,.3-0.58,2.3,2.3,0,0,0,.09-0.63v-0.39h-0.62Z" transform="translate(-289.31 -154.42)"/><path class="cls-3" d="M420.16,172.36h1.17v4.55h0a2.13,2.13,0,0,1,.9-0.76,2.87,2.87,0,0,1,1.25-.28,3.26,3.26,0,0,1,1.29.25,2.9,2.9,0,0,1,1,.68,3,3,0,0,1,.63,1,3.63,3.63,0,0,1,.22,1.28,3.58,3.58,0,0,1-.22,1.27,3.12,3.12,0,0,1-.63,1,2.86,2.86,0,0,1-1,.69,3.26,3.26,0,0,1-1.29.25,2.88,2.88,0,0,1-1.22-.27,2.22,2.22,0,0,1-.93-0.77h0v0.88h-1.17v-9.83Zm3.2,8.89a2.1,2.1,0,0,0,.84-0.16,1.85,1.85,0,0,0,.64-0.44,2,2,0,0,0,.4-0.68,2.68,2.68,0,0,0,0-1.73,1.94,1.94,0,0,0-.4-0.68,1.88,1.88,0,0,0-.64-0.44,2.28,2.28,0,0,0-1.69,0,1.88,1.88,0,0,0-.64.44,2,2,0,0,0-.4.68,2.69,2.69,0,0,0,0,1.73,2,2,0,0,0,.4.68,1.85,1.85,0,0,0,.64.44A2.1,2.1,0,0,0,423.35,181.25Z" transform="translate(-289.31 -154.42)"/><path class="cls-3" d="M433.56,182.19h-1.17v-0.95h0a1.72,1.72,0,0,1-.77.8,2.53,2.53,0,0,1-1.26.31,2.69,2.69,0,0,1-.86-0.14,1.94,1.94,0,0,1-.71-0.42,2,2,0,0,1-.49-0.74,2.8,2.8,0,0,1-.18-1.06v-4h1.17v3.64a2.05,2.05,0,0,0,.12.73,1.34,1.34,0,0,0,.31.49,1.16,1.16,0,0,0,.45.27,1.64,1.64,0,0,0,.53.08,1.91,1.91,0,0,0,.68-0.12,1.4,1.4,0,0,0,.55-0.37,1.76,1.76,0,0,0,.36-0.64,2.94,2.94,0,0,0,.13-0.92V176h1.17v6.16Z" transform="translate(-289.31 -154.42)"/><path class="cls-3" d="M438.6,177.58a1.79,1.79,0,0,0-.51-0.44,1.48,1.48,0,0,0-.75-0.18,1.42,1.42,0,0,0-.72.18,0.56,0.56,0,0,0-.31.51,0.59,0.59,0,0,0,.18.44,1.38,1.38,0,0,0,.42.27,2.46,2.46,0,0,0,.51.16l0.47,0.09a5.5,5.5,0,0,1,.71.22,2,2,0,0,1,.57.34,1.47,1.47,0,0,1,.38.51,1.75,1.75,0,0,1,.14.73,1.71,1.71,0,0,1-.22.89,1.86,1.86,0,0,1-.57.6,2.38,2.38,0,0,1-.8.34,3.93,3.93,0,0,1-.9.1,3.57,3.57,0,0,1-1.35-.23,2.43,2.43,0,0,1-1-.86l0.88-.73a3.6,3.6,0,0,0,.64.51,1.57,1.57,0,0,0,.86.22,2.22,2.22,0,0,0,.45,0,1.37,1.37,0,0,0,.4-0.14,0.88,0.88,0,0,0,.29-0.25,0.56,0.56,0,0,0,.11-0.34,0.6,0.6,0,0,0-.16-0.43,1.18,1.18,0,0,0-.39-0.27,2.9,2.9,0,0,0-.48-0.16l-0.45-.1c-0.25-.06-0.49-0.13-0.71-0.21a2.18,2.18,0,0,1-.6-0.31,1.44,1.44,0,0,1-.42-0.49,1.59,1.59,0,0,1-.16-0.74,1.67,1.67,0,0,1,.2-0.84,1.8,1.8,0,0,1,.53-0.59,2.43,2.43,0,0,1,.75-0.35,3.18,3.18,0,0,1,.85-0.12,3.13,3.13,0,0,1,1.2.23,1.89,1.89,0,0,1,.91.78Z" transform="translate(-289.31 -154.42)"/><path class="cls-3" d="M440.92,173.82a0.86,0.86,0,1,1,.25.61A0.82,0.82,0,0,1,440.92,173.82Zm0.27,2.21h1.17v6.16h-1.17V176Z" transform="translate(-289.31 -154.42)"/><path class="cls-3" d="M444.22,176h1.17V177h0a1.73,1.73,0,0,1,.77-0.8,2.54,2.54,0,0,1,1.26-.3,2.65,2.65,0,0,1,.85.14,1.92,1.92,0,0,1,.71.42,2,2,0,0,1,.49.73,2.82,2.82,0,0,1,.18,1.06v4h-1.17v-3.64a2.07,2.07,0,0,0-.12-0.73,1.35,1.35,0,0,0-.31-0.49,1.18,1.18,0,0,0-.45-0.27,1.67,1.67,0,0,0-.53-0.08,1.9,1.9,0,0,0-.68.12,1.4,1.4,0,0,0-.55.37,1.74,1.74,0,0,0-.36.64,2.92,2.92,0,0,0-.13.92v3.17h-1.17V176Z" transform="translate(-289.31 -154.42)"/><path class="cls-3" d="M452.33,179.54a1.55,1.55,0,0,0,.18.73,1.83,1.83,0,0,0,.46.57,2.14,2.14,0,0,0,.66.36,2.4,2.4,0,0,0,.78.13,1.75,1.75,0,0,0,.95-0.25,3.08,3.08,0,0,0,.74-0.67l0.88,0.68a3.25,3.25,0,0,1-2.73,1.26,3.38,3.38,0,0,1-1.32-.25,2.86,2.86,0,0,1-1-.68,3,3,0,0,1-.63-1,3.63,3.63,0,0,1-.22-1.28,3.36,3.36,0,0,1,.24-1.28,3.17,3.17,0,0,1,.66-1,3,3,0,0,1,1-.68,3.23,3.23,0,0,1,1.27-.25,3.06,3.06,0,0,1,1.38.29,2.76,2.76,0,0,1,.93.75,3,3,0,0,1,.53,1,4.33,4.33,0,0,1,.16,1.18v0.42h-4.94Zm3.69-.94a2.47,2.47,0,0,0-.12-0.72,1.58,1.58,0,0,0-.33-0.57,1.54,1.54,0,0,0-.55-0.38,2,2,0,0,0-.77-0.14,1.89,1.89,0,0,0-.79.16,1.93,1.93,0,0,0-1,1,1.59,1.59,0,0,0-.14.63H456Z" transform="translate(-289.31 -154.42)"/><path class="cls-3" d="M462,177.58a1.79,1.79,0,0,0-.51-0.44,1.48,1.48,0,0,0-.75-0.18,1.42,1.42,0,0,0-.72.18,0.56,0.56,0,0,0-.31.51,0.59,0.59,0,0,0,.18.44,1.38,1.38,0,0,0,.42.27,2.46,2.46,0,0,0,.51.16l0.47,0.09a5.5,5.5,0,0,1,.71.22,2,2,0,0,1,.57.34,1.47,1.47,0,0,1,.38.51,1.75,1.75,0,0,1,.14.73,1.71,1.71,0,0,1-.22.89,1.86,1.86,0,0,1-.57.6,2.38,2.38,0,0,1-.8.34,3.93,3.93,0,0,1-.9.1,3.57,3.57,0,0,1-1.35-.23,2.43,2.43,0,0,1-1-.86l0.88-.73a3.6,3.6,0,0,0,.64.51,1.57,1.57,0,0,0,.86.22,2.22,2.22,0,0,0,.45,0,1.37,1.37,0,0,0,.4-0.14,0.88,0.88,0,0,0,.29-0.25,0.56,0.56,0,0,0,.11-0.34,0.6,0.6,0,0,0-.16-0.43,1.18,1.18,0,0,0-.39-0.27,2.9,2.9,0,0,0-.48-0.16l-0.45-.1c-0.25-.06-0.49-0.13-0.71-0.21A2.18,2.18,0,0,1,459,179a1.44,1.44,0,0,1-.42-0.49,1.59,1.59,0,0,1-.16-0.74,1.67,1.67,0,0,1,.2-0.84,1.8,1.8,0,0,1,.53-0.59,2.43,2.43,0,0,1,.75-0.35,3.18,3.18,0,0,1,.85-0.12,3.13,3.13,0,0,1,1.2.23,1.89,1.89,0,0,1,.91.78Z" transform="translate(-289.31 -154.42)"/><path class="cls-3" d="M467.72,177.58a1.79,1.79,0,0,0-.51-0.44,1.48,1.48,0,0,0-.75-0.18,1.42,1.42,0,0,0-.72.18,0.56,0.56,0,0,0-.31.51,0.59,0.59,0,0,0,.18.44,1.38,1.38,0,0,0,.42.27,2.46,2.46,0,0,0,.51.16l0.47,0.09a5.5,5.5,0,0,1,.71.22,2,2,0,0,1,.57.34,1.47,1.47,0,0,1,.38.51,1.75,1.75,0,0,1,.14.73,1.71,1.71,0,0,1-.22.89,1.86,1.86,0,0,1-.57.6,2.38,2.38,0,0,1-.8.34,3.93,3.93,0,0,1-.9.1,3.57,3.57,0,0,1-1.35-.23,2.43,2.43,0,0,1-1-.86l0.88-.73a3.6,3.6,0,0,0,.64.51,1.57,1.57,0,0,0,.86.22,2.22,2.22,0,0,0,.45,0,1.37,1.37,0,0,0,.4-0.14,0.88,0.88,0,0,0,.29-0.25,0.56,0.56,0,0,0,.11-0.34,0.6,0.6,0,0,0-.16-0.43,1.18,1.18,0,0,0-.39-0.27,2.9,2.9,0,0,0-.48-0.16l-0.45-.1c-0.25-.06-0.49-0.13-0.71-0.21a2.18,2.18,0,0,1-.6-0.31,1.44,1.44,0,0,1-.42-0.49,1.59,1.59,0,0,1-.16-0.74,1.67,1.67,0,0,1,.2-0.84,1.8,1.8,0,0,1,.53-0.59,2.43,2.43,0,0,1,.75-0.35,3.18,3.18,0,0,1,.85-0.12,3.13,3.13,0,0,1,1.2.23,1.89,1.89,0,0,1,.91.78Z" transform="translate(-289.31 -154.42)"/><path class="cls-3" d="M367,184.36h1.17V189h0a1.73,1.73,0,0,1,.77-0.8,2.54,2.54,0,0,1,1.26-.3,2.65,2.65,0,0,1,.85.14,1.92,1.92,0,0,1,.71.42,2,2,0,0,1,.49.73,2.82,2.82,0,0,1,.18,1.06v4h-1.17v-3.64a2.07,2.07,0,0,0-.12-0.73,1.35,1.35,0,0,0-.31-0.49,1.18,1.18,0,0,0-.45-0.27,1.67,1.67,0,0,0-.53-0.08,1.9,1.9,0,0,0-.68.12,1.4,1.4,0,0,0-.55.37,1.74,1.74,0,0,0-.36.64,2.92,2.92,0,0,0-.13.92v3.17H367v-9.83Z" transform="translate(-289.31 -154.42)"/><path class="cls-3" d="M373.54,188h1.35l1.82,4.81h0L378.5,188h1.25l-2.92,7.49q-0.16.4-.32,0.73a2.2,2.2,0,0,1-.4.56,1.64,1.64,0,0,1-.56.37,2.23,2.23,0,0,1-.81.13,4.36,4.36,0,0,1-.52,0,1.93,1.93,0,0,1-.51-0.14l0.14-1.07a1.82,1.82,0,0,0,.7.14,1.29,1.29,0,0,0,.46-0.07,0.91,0.91,0,0,0,.32-0.21,1.2,1.2,0,0,0,.23-0.32q0.09-.18.18-0.42l0.38-1Z" transform="translate(-289.31 -154.42)"/><path class="cls-3" d="M380.77,188h1.17v0.88h0a2.23,2.23,0,0,1,.93-0.77,2.86,2.86,0,0,1,1.22-.27,3.26,3.26,0,0,1,1.29.25,2.86,2.86,0,0,1,1,.69,3.11,3.11,0,0,1,.63,1,3.6,3.6,0,0,1,.22,1.27,3.64,3.64,0,0,1-.22,1.28,3,3,0,0,1-.63,1,2.9,2.9,0,0,1-1,.68,3.26,3.26,0,0,1-1.29.25,2.86,2.86,0,0,1-1.25-.28,2.14,2.14,0,0,1-.9-0.76h0v4.55h-1.17V188ZM384,189a2.13,2.13,0,0,0-.85.16,1.88,1.88,0,0,0-.64.44,2,2,0,0,0-.4.68,2.69,2.69,0,0,0,0,1.73,2,2,0,0,0,.4.68,1.85,1.85,0,0,0,.64.44,2.27,2.27,0,0,0,1.69,0,1.85,1.85,0,0,0,.64-0.44,2,2,0,0,0,.4-0.68,2.68,2.68,0,0,0,0-1.73,1.94,1.94,0,0,0-.4-0.68,1.88,1.88,0,0,0-.64-0.44A2.13,2.13,0,0,0,384,189Z" transform="translate(-289.31 -154.42)"/><path class="cls-3" d="M388.42,191.11a3.13,3.13,0,0,1,.25-1.26,3.28,3.28,0,0,1,.7-1,3.31,3.31,0,0,1,4.65,0,3.29,3.29,0,0,1,.7,1,3.12,3.12,0,0,1,.25,1.26,3.21,3.21,0,0,1-.95,2.29,3.29,3.29,0,0,1-2.33.94,3.29,3.29,0,0,1-2.33-.94A3.2,3.2,0,0,1,388.42,191.11Zm1.25,0a2.53,2.53,0,0,0,.14.87,2,2,0,0,0,.4.68,1.85,1.85,0,0,0,.64.44,2.27,2.27,0,0,0,1.69,0,1.85,1.85,0,0,0,.64-0.44,2,2,0,0,0,.4-0.68,2.68,2.68,0,0,0,0-1.73,2,2,0,0,0-.4-0.68,1.88,1.88,0,0,0-.64-0.44,2.28,2.28,0,0,0-1.69,0,1.88,1.88,0,0,0-.64.44,1.94,1.94,0,0,0-.4.68A2.51,2.51,0,0,0,389.67,191.11Z" transform="translate(-289.31 -154.42)"/><path class="cls-3" d="M399.74,189h-1.68v2.79c0,0.17,0,.34,0,0.51a1.35,1.35,0,0,0,.1.46,0.73,0.73,0,0,0,.26.32,0.88,0.88,0,0,0,.51.12,2.43,2.43,0,0,0,.43,0,1.23,1.23,0,0,0,.4-0.14v1.07a1.5,1.5,0,0,1-.54.16,3.9,3.9,0,0,1-.51,0,2.35,2.35,0,0,1-1-.19,1.27,1.27,0,0,1-.55-0.49,1.57,1.57,0,0,1-.21-0.67c0-.25,0-0.5,0-0.75V189h-1.35v-1h1.35V186.3h1.17V188h1.68v1Z" transform="translate(-289.31 -154.42)"/><path class="cls-3" d="M401.25,184.36h1.17V189h0a1.73,1.73,0,0,1,.77-0.8,2.54,2.54,0,0,1,1.26-.3,2.65,2.65,0,0,1,.85.14,1.92,1.92,0,0,1,.71.42,2,2,0,0,1,.49.73,2.82,2.82,0,0,1,.18,1.06v4h-1.17v-3.64a2.07,2.07,0,0,0-.12-0.73,1.35,1.35,0,0,0-.31-0.49,1.18,1.18,0,0,0-.45-0.27,1.67,1.67,0,0,0-.53-0.08,1.9,1.9,0,0,0-.68.12,1.4,1.4,0,0,0-.55.37,1.74,1.74,0,0,0-.36.64,2.92,2.92,0,0,0-.13.92v3.17h-1.17v-9.83Z" transform="translate(-289.31 -154.42)"/><path class="cls-3" d="M409.36,191.54a1.55,1.55,0,0,0,.18.73,1.83,1.83,0,0,0,.46.57,2.14,2.14,0,0,0,.66.36,2.4,2.4,0,0,0,.78.13,1.75,1.75,0,0,0,.95-0.25,3.08,3.08,0,0,0,.74-0.67l0.88,0.68a3.25,3.25,0,0,1-2.73,1.26,3.38,3.38,0,0,1-1.32-.25,2.86,2.86,0,0,1-1-.68,3,3,0,0,1-.63-1,3.63,3.63,0,0,1-.22-1.28,3.36,3.36,0,0,1,.24-1.28,3.17,3.17,0,0,1,.66-1,3,3,0,0,1,1-.68,3.23,3.23,0,0,1,1.27-.25,3.06,3.06,0,0,1,1.38.29,2.76,2.76,0,0,1,.93.75,3,3,0,0,1,.53,1,4.33,4.33,0,0,1,.16,1.18v0.42h-4.94Zm3.69-.94a2.47,2.47,0,0,0-.12-0.72,1.58,1.58,0,0,0-.33-0.57,1.54,1.54,0,0,0-.55-0.38,2,2,0,0,0-.77-0.14,1.89,1.89,0,0,0-.79.16,1.93,1.93,0,0,0-1,1,1.59,1.59,0,0,0-.14.63h3.69Z" transform="translate(-289.31 -154.42)"/><path class="cls-3" d="M419,189.58a1.79,1.79,0,0,0-.51-0.44,1.48,1.48,0,0,0-.75-0.18,1.42,1.42,0,0,0-.72.18,0.56,0.56,0,0,0-.31.51,0.59,0.59,0,0,0,.18.44,1.38,1.38,0,0,0,.42.27,2.46,2.46,0,0,0,.51.16l0.47,0.09a5.5,5.5,0,0,1,.71.22,2,2,0,0,1,.57.34,1.47,1.47,0,0,1,.38.51,1.75,1.75,0,0,1,.14.73,1.71,1.71,0,0,1-.22.89,1.86,1.86,0,0,1-.57.6,2.38,2.38,0,0,1-.8.34,3.93,3.93,0,0,1-.9.1,3.57,3.57,0,0,1-1.35-.23,2.43,2.43,0,0,1-1-.86l0.88-.73a3.6,3.6,0,0,0,.64.51,1.57,1.57,0,0,0,.86.22,2.22,2.22,0,0,0,.45,0,1.37,1.37,0,0,0,.4-0.14,0.88,0.88,0,0,0,.29-0.25,0.56,0.56,0,0,0,.11-0.34,0.6,0.6,0,0,0-.16-0.43,1.18,1.18,0,0,0-.39-0.27,2.9,2.9,0,0,0-.48-0.16l-0.45-.1c-0.25-.06-0.49-0.13-0.71-0.21A2.18,2.18,0,0,1,416,191a1.44,1.44,0,0,1-.42-0.49,1.59,1.59,0,0,1-.16-0.74,1.67,1.67,0,0,1,.2-0.84,1.8,1.8,0,0,1,.53-0.59,2.43,2.43,0,0,1,.75-0.35,3.18,3.18,0,0,1,.85-0.12,3.13,3.13,0,0,1,1.2.23,1.89,1.89,0,0,1,.91.78Z" transform="translate(-289.31 -154.42)"/><path class="cls-3" d="M421.29,185.82a0.86,0.86,0,1,1,.25.61A0.82,0.82,0,0,1,421.29,185.82Zm0.27,2.21h1.17v6.16h-1.17V188Z" transform="translate(-289.31 -154.42)"/><path class="cls-3" d="M427.87,189.58a1.79,1.79,0,0,0-.51-0.44,1.48,1.48,0,0,0-.75-0.18,1.42,1.42,0,0,0-.72.18,0.56,0.56,0,0,0-.31.51,0.59,0.59,0,0,0,.18.44,1.38,1.38,0,0,0,.42.27,2.46,2.46,0,0,0,.51.16l0.47,0.09a5.5,5.5,0,0,1,.71.22,2,2,0,0,1,.57.34,1.47,1.47,0,0,1,.38.51,1.75,1.75,0,0,1,.14.73,1.71,1.71,0,0,1-.22.89,1.86,1.86,0,0,1-.57.6,2.38,2.38,0,0,1-.8.34,3.93,3.93,0,0,1-.9.1,3.57,3.57,0,0,1-1.35-.23,2.43,2.43,0,0,1-1-.86l0.88-.73a3.6,3.6,0,0,0,.64.51,1.57,1.57,0,0,0,.86.22,2.22,2.22,0,0,0,.45,0,1.37,1.37,0,0,0,.4-0.14,0.88,0.88,0,0,0,.29-0.25,0.56,0.56,0,0,0,.11-0.34,0.6,0.6,0,0,0-.16-0.43,1.18,1.18,0,0,0-.39-0.27,2.9,2.9,0,0,0-.48-0.16l-0.45-.1c-0.25-.06-0.49-0.13-0.71-0.21a2.18,2.18,0,0,1-.6-0.31,1.44,1.44,0,0,1-.42-0.49,1.59,1.59,0,0,1-.16-0.74,1.67,1.67,0,0,1,.2-0.84,1.8,1.8,0,0,1,.53-0.59,2.43,2.43,0,0,1,.75-0.35,3.18,3.18,0,0,1,.85-0.12,3.13,3.13,0,0,1,1.2.23,1.89,1.89,0,0,1,.91.78Z" transform="translate(-289.31 -154.42)"/><path class="cls-3" d="M437.28,189h-1.68v2.79c0,0.17,0,.34,0,0.51a1.35,1.35,0,0,0,.1.46,0.73,0.73,0,0,0,.26.32,0.88,0.88,0,0,0,.51.12,2.43,2.43,0,0,0,.43,0,1.23,1.23,0,0,0,.4-0.14v1.07a1.5,1.5,0,0,1-.54.16,3.9,3.9,0,0,1-.51,0,2.35,2.35,0,0,1-1-.19,1.27,1.27,0,0,1-.55-0.49,1.57,1.57,0,0,1-.21-0.67c0-.25,0-0.5,0-0.75V189h-1.35v-1h1.35V186.3h1.17V188h1.68v1Z" transform="translate(-289.31 -154.42)"/><path class="cls-3" d="M438.49,191.11a3.13,3.13,0,0,1,.25-1.26,3.28,3.28,0,0,1,.7-1,3.31,3.31,0,0,1,4.65,0,3.29,3.29,0,0,1,.7,1,3.12,3.12,0,0,1,.25,1.26,3.21,3.21,0,0,1-.95,2.29,3.29,3.29,0,0,1-2.33.94,3.29,3.29,0,0,1-2.33-.94A3.2,3.2,0,0,1,438.49,191.11Zm1.25,0a2.53,2.53,0,0,0,.14.87,2,2,0,0,0,.4.68,1.85,1.85,0,0,0,.64.44,2.27,2.27,0,0,0,1.69,0,1.85,1.85,0,0,0,.64-0.44,2,2,0,0,0,.4-0.68,2.68,2.68,0,0,0,0-1.73,2,2,0,0,0-.4-0.68,1.88,1.88,0,0,0-.64-0.44,2.28,2.28,0,0,0-1.69,0,1.88,1.88,0,0,0-.64.44,1.94,1.94,0,0,0-.4.68A2.51,2.51,0,0,0,439.74,191.11Z" transform="translate(-289.31 -154.42)"/><path class="cls-3" d="M453.43,189h-1.68v2.79c0,0.17,0,.34,0,0.51a1.35,1.35,0,0,0,.1.46,0.73,0.73,0,0,0,.26.32,0.88,0.88,0,0,0,.51.12,2.43,2.43,0,0,0,.43,0,1.23,1.23,0,0,0,.4-0.14v1.07a1.5,1.5,0,0,1-.54.16,3.9,3.9,0,0,1-.51,0,2.35,2.35,0,0,1-1-.19,1.27,1.27,0,0,1-.55-0.49,1.57,1.57,0,0,1-.21-0.67c0-.25,0-0.5,0-0.75V189h-1.35v-1h1.35V186.3h1.17V188h1.68v1Z" transform="translate(-289.31 -154.42)"/><path class="cls-3" d="M455.82,191.54a1.55,1.55,0,0,0,.18.73,1.83,1.83,0,0,0,.46.57,2.14,2.14,0,0,0,.66.36,2.4,2.4,0,0,0,.78.13,1.75,1.75,0,0,0,.95-0.25,3.08,3.08,0,0,0,.74-0.67l0.88,0.68a3.25,3.25,0,0,1-2.73,1.26,3.38,3.38,0,0,1-1.32-.25,2.86,2.86,0,0,1-1-.68,3,3,0,0,1-.63-1,3.63,3.63,0,0,1-.22-1.28,3.36,3.36,0,0,1,.24-1.28,3.17,3.17,0,0,1,.66-1,3,3,0,0,1,1-.68,3.23,3.23,0,0,1,1.27-.25,3.06,3.06,0,0,1,1.38.29,2.76,2.76,0,0,1,.93.75,3,3,0,0,1,.53,1,4.33,4.33,0,0,1,.16,1.18v0.42h-4.94Zm3.69-.94a2.47,2.47,0,0,0-.12-0.72,1.58,1.58,0,0,0-.33-0.57,1.54,1.54,0,0,0-.55-0.38,2,2,0,0,0-.77-0.14,1.89,1.89,0,0,0-.79.16,1.93,1.93,0,0,0-1,1,1.59,1.59,0,0,0-.14.63h3.69Z" transform="translate(-289.31 -154.42)"/><path class="cls-3" d="M465.44,189.58a1.79,1.79,0,0,0-.51-0.44,1.48,1.48,0,0,0-.75-0.18,1.42,1.42,0,0,0-.72.18,0.56,0.56,0,0,0-.31.51,0.59,0.59,0,0,0,.18.44,1.38,1.38,0,0,0,.42.27,2.46,2.46,0,0,0,.51.16l0.47,0.09a5.5,5.5,0,0,1,.71.22,2,2,0,0,1,.57.34,1.47,1.47,0,0,1,.38.51,1.75,1.75,0,0,1,.14.73,1.71,1.71,0,0,1-.22.89,1.86,1.86,0,0,1-.57.6,2.38,2.38,0,0,1-.8.34,3.93,3.93,0,0,1-.9.1,3.57,3.57,0,0,1-1.35-.23,2.43,2.43,0,0,1-1-.86l0.88-.73a3.6,3.6,0,0,0,.64.51,1.57,1.57,0,0,0,.86.22,2.22,2.22,0,0,0,.45,0,1.37,1.37,0,0,0,.4-0.14,0.88,0.88,0,0,0,.29-0.25,0.56,0.56,0,0,0,.11-0.34,0.6,0.6,0,0,0-.16-0.43,1.18,1.18,0,0,0-.39-0.27,2.9,2.9,0,0,0-.48-0.16l-0.45-.1c-0.25-.06-0.49-0.13-0.71-0.21a2.18,2.18,0,0,1-.6-0.31,1.44,1.44,0,0,1-.42-0.49,1.59,1.59,0,0,1-.16-0.74,1.67,1.67,0,0,1,.2-0.84,1.8,1.8,0,0,1,.53-0.59,2.43,2.43,0,0,1,.75-0.35,3.18,3.18,0,0,1,.85-0.12,3.13,3.13,0,0,1,1.2.23,1.89,1.89,0,0,1,.91.78Z" transform="translate(-289.31 -154.42)"/><path class="cls-3" d="M471.24,189h-1.68v2.79c0,0.17,0,.34,0,0.51a1.35,1.35,0,0,0,.1.46,0.73,0.73,0,0,0,.26.32,0.88,0.88,0,0,0,.51.12,2.43,2.43,0,0,0,.43,0,1.23,1.23,0,0,0,.4-0.14v1.07a1.5,1.5,0,0,1-.54.16,3.9,3.9,0,0,1-.51,0,2.35,2.35,0,0,1-1-.19,1.27,1.27,0,0,1-.55-0.49,1.57,1.57,0,0,1-.21-0.67c0-.25,0-0.5,0-0.75V189H467v-1h1.35V186.3h1.17V188h1.68v1Z" transform="translate(-289.31 -154.42)"/><path class="cls-3" d="M474.59,191.62v-0.79a2.73,2.73,0,0,1,.05-0.59,1.57,1.57,0,0,1,.16-0.42,1.64,1.64,0,0,1,.28-0.36l0.44-.42,0.42-.4a4,4,0,0,0,.38-0.42,2.22,2.22,0,0,0,.28-0.46,1.28,1.28,0,0,0,.11-0.54,1.38,1.38,0,0,0-.11-0.55,1.43,1.43,0,0,0-.29-0.44,1.32,1.32,0,0,0-.44-0.29,1.41,1.41,0,0,0-.54-0.1,1.39,1.39,0,0,0-1,.4,1.75,1.75,0,0,0-.47,1.05l-1.33-.13a2.74,2.74,0,0,1,.94-1.77,2.89,2.89,0,0,1,1.92-.64,3.1,3.1,0,0,1,1,.16,2.44,2.44,0,0,1,.83.47,2.16,2.16,0,0,1,.55.75,2.48,2.48,0,0,1,.2,1,2.4,2.4,0,0,1-.14.86,2.6,2.6,0,0,1-.4.7l-0.78.81-0.13.12-0.33.33a1.18,1.18,0,0,0-.19.29,1.14,1.14,0,0,0-.1.33,3.27,3.27,0,0,0,0,.46v0.57h-1.25Zm-0.25,1.79a0.87,0.87,0,1,1,.25.6A0.82,0.82,0,0,1,474.35,193.41Z" transform="translate(-289.31 -154.42)"/><line class="cls-4" x1="129.19" y1="73.5" x2="129.19" y2="58.79"/><polyline class="cls-1" points="0.58 29.93 3.36 29.93 65.69 29.93"/><line class="cls-1" x1="264.35" y1="29.93" x2="199.23" y2="29.93"/><line class="cls-5" x1="118.36" y1="85" x2="1.65" y2="63.9"/><polyline class="cls-6" points="253.24 18.13 261.52 30.43 253.24 41.63"/><polygon class="cls-6" points="3.26 73.19 0.57 63.35 8.44 57.88 3.26 73.19"/><polyline class="cls-6" points="56.43 17.69 64.72 29.99 56.43 41.19"/><circle class="cls-7" cx="128.95" cy="86.01" r="13.42"/><path class="cls-8" d="M411.92,236.92h1.17l4.51,6.47h0v-6.47h0.92v7.79h-1.17l-4.51-6.47h0v6.47h-0.92v-7.79Z" transform="translate(-289.31 -154.42)"/><path class="cls-8" d="M420,242.13a2.79,2.79,0,0,1,.21-1.1,2.6,2.6,0,0,1,.57-0.85,2.54,2.54,0,0,1,.87-0.56,3.15,3.15,0,0,1,2.2,0,2.54,2.54,0,0,1,.87.56,2.6,2.6,0,0,1,.57.85,3,3,0,0,1,0,2.2,2.6,2.6,0,0,1-.57.85,2.54,2.54,0,0,1-.87.55,3.15,3.15,0,0,1-2.2,0,2.54,2.54,0,0,1-.87-0.55,2.6,2.6,0,0,1-.57-0.85A2.8,2.8,0,0,1,420,242.13Zm0.92,0a2.18,2.18,0,0,0,.13.75,1.74,1.74,0,0,0,.95,1,2,2,0,0,0,1.51,0,1.74,1.74,0,0,0,.95-1,2.31,2.31,0,0,0,0-1.51,1.75,1.75,0,0,0-.37-0.61,1.77,1.77,0,0,0-.58-0.41,2,2,0,0,0-1.51,0,1.74,1.74,0,0,0-.95,1A2.17,2.17,0,0,0,421,242.13Z" transform="translate(-289.31 -154.42)"/><circle class="cls-7" cx="226.52" cy="30.43" r="13.42"/><path class="cls-8" d="M510.58,185l-2.9-4.43h1.18l2.19,3.52,2.25-3.52h1.11L511.5,185v3.36h-0.92V185Z" transform="translate(-289.31 -154.42)"/><path class="cls-8" d="M518.5,187.43a2.61,2.61,0,0,1-1,.83,3.22,3.22,0,0,1-1.28.24,2.67,2.67,0,0,1-1.09-.21,2.46,2.46,0,0,1-.82-0.58,2.53,2.53,0,0,1-.52-0.86,3,3,0,0,1-.18-1.06,3,3,0,0,1,.2-1.09,2.54,2.54,0,0,1,.55-0.86,2.47,2.47,0,0,1,.84-0.56,2.77,2.77,0,0,1,1.06-.2,2.63,2.63,0,0,1,1,.18,2.14,2.14,0,0,1,.78.53,2.37,2.37,0,0,1,.5.85,3.43,3.43,0,0,1,.18,1.14v0.28h-4.16a1.8,1.8,0,0,0,.16.63,1.82,1.82,0,0,0,.36.53,1.64,1.64,0,0,0,.52.36,1.58,1.58,0,0,0,.65.13,2,2,0,0,0,.95-0.2,2.15,2.15,0,0,0,.69-0.58Zm-0.74-2.1a1.48,1.48,0,0,0-.43-1.06,1.54,1.54,0,0,0-1.12-.4,1.59,1.59,0,0,0-1.68,1.45h3.23Z" transform="translate(-289.31 -154.42)"/><path class="cls-8" d="M520.12,187a2.19,2.19,0,0,0,.56.51,1.44,1.44,0,0,0,.76.19,1.9,1.9,0,0,0,.4,0,1.22,1.22,0,0,0,.37-0.14,0.81,0.81,0,0,0,.26-0.25,0.62,0.62,0,0,0,.1-0.36,0.58,0.58,0,0,0-.09-0.34,0.83,0.83,0,0,0-.25-0.23,1.41,1.41,0,0,0-.35-0.15l-0.41-.1q-0.36-.08-0.69-0.18a2.23,2.23,0,0,1-.58-0.26,1.22,1.22,0,0,1-.4-0.41,1.27,1.27,0,0,1-.15-0.65,1.3,1.3,0,0,1,.17-0.66,1.42,1.42,0,0,1,.44-0.47,2.13,2.13,0,0,1,.62-0.29,2.5,2.5,0,0,1,.7-0.1,2.35,2.35,0,0,1,1,.22,1.58,1.58,0,0,1,.73.71l-0.72.47a1.32,1.32,0,0,0-.43-0.45,1.2,1.2,0,0,0-.65-0.17,1.52,1.52,0,0,0-.36,0,1.09,1.09,0,0,0-.32.13,0.78,0.78,0,0,0-.24.22,0.54,0.54,0,0,0-.09.31,0.4,0.4,0,0,0,.1.28,0.92,0.92,0,0,0,.29.2,2.5,2.5,0,0,0,.42.15l0.49,0.11a5,5,0,0,1,.65.17,1.88,1.88,0,0,1,.54.28,1.25,1.25,0,0,1,.36.44,1.44,1.44,0,0,1,.13.65,1.48,1.48,0,0,1-.18.75,1.45,1.45,0,0,1-.47.5,2.06,2.06,0,0,1-.66.28,3.24,3.24,0,0,1-.75.09,2.9,2.9,0,0,1-1.14-.2,2.06,2.06,0,0,1-.86-0.75Z" transform="translate(-289.31 -154.42)"/><polyline class="cls-1" points="75.94 2 65.94 2 65.94 58.85 75.94 58.85"/><polyline class="cls-1" points="189.34 2 199.34 2 199.34 58.85 189.34 58.85"/><path class="cls-2" d="M372.82,168.07l5.51-1.86,0.74,2.25-5.47,1.86,3.45,4.62-1.9,1.48-3.49-4.77-3.38,4.77-1.94-1.48,3.38-4.62-5.47-1.86,0.74-2.25,5.51,1.86v-5.78h2.33v5.78Z" transform="translate(-289.31 -154.42)"/><path class="cls-3" d="M376.37,173h1.25v3.82h4.77V173h1.25v9.21h-1.25V178h-4.77v4.21h-1.25V173Z" transform="translate(-289.31 -154.42)"/><path class="cls-3" d="M385.73,176.78a3.24,3.24,0,0,1,1.14-.68,3.92,3.92,0,0,1,1.3-.23,3.58,3.58,0,0,1,1.16.17,2.26,2.26,0,0,1,.8.46,1.79,1.79,0,0,1,.46.66,2,2,0,0,1,.15.77v3.15q0,0.33,0,.6c0,0.18,0,.36,0,0.52h-1q0-.47,0-0.94h0a2.23,2.23,0,0,1-.92.84,2.9,2.9,0,0,1-1.24.25,2.83,2.83,0,0,1-.82-0.12,2,2,0,0,1-.68-0.35,1.68,1.68,0,0,1-.46-0.58,1.8,1.8,0,0,1-.17-0.8,1.78,1.78,0,0,1,.27-1,2,2,0,0,1,.73-0.66,3.48,3.48,0,0,1,1.08-.36,7.52,7.52,0,0,1,1.32-.11h0.86v-0.26a1.29,1.29,0,0,0-.09-0.47,1.26,1.26,0,0,0-.27-0.42,1.29,1.29,0,0,0-.46-0.3,1.72,1.72,0,0,0-.65-0.11,2.37,2.37,0,0,0-.59.07,2.56,2.56,0,0,0-.46.16,2,2,0,0,0-.38.23l-0.33.25Zm3.3,2.44a8.22,8.22,0,0,0-.85,0,3.36,3.36,0,0,0-.79.17,1.54,1.54,0,0,0-.58.37,0.82,0.82,0,0,0-.23.6,0.85,0.85,0,0,0,.36.77,1.75,1.75,0,0,0,1,.23,1.86,1.86,0,0,0,.82-0.16,1.52,1.52,0,0,0,.55-0.42,1.65,1.65,0,0,0,.3-0.58,2.3,2.3,0,0,0,.09-0.63v-0.39H389Z" transform="translate(-289.31 -154.42)"/><path class="cls-3" d="M391.71,176h1.35l1.85,4.72,1.77-4.72h1.25l-2.42,6.16h-1.29Z" transform="translate(-289.31 -154.42)"/><path class="cls-3" d="M399.84,179.54a1.55,1.55,0,0,0,.18.73,1.83,1.83,0,0,0,.46.57,2.14,2.14,0,0,0,.66.36,2.4,2.4,0,0,0,.78.13,1.75,1.75,0,0,0,.95-0.25,3.08,3.08,0,0,0,.74-0.67l0.88,0.68a3.25,3.25,0,0,1-2.73,1.26,3.38,3.38,0,0,1-1.32-.25,2.86,2.86,0,0,1-1-.68,3,3,0,0,1-.63-1,3.63,3.63,0,0,1-.22-1.28,3.36,3.36,0,0,1,.24-1.28,3.17,3.17,0,0,1,.66-1,3,3,0,0,1,1-.68,3.23,3.23,0,0,1,1.27-.25,3.06,3.06,0,0,1,1.38.29,2.76,2.76,0,0,1,.93.75,3,3,0,0,1,.53,1,4.33,4.33,0,0,1,.16,1.18v0.42h-4.94Zm3.69-.94a2.47,2.47,0,0,0-.12-0.72,1.58,1.58,0,0,0-.33-0.57,1.54,1.54,0,0,0-.55-0.38,2,2,0,0,0-.77-0.14,1.89,1.89,0,0,0-.79.16,1.93,1.93,0,0,0-1,1,1.59,1.59,0,0,0-.14.63h3.69Z" transform="translate(-289.31 -154.42)"/><path class="cls-3" d="M409.82,176.78a3.24,3.24,0,0,1,1.14-.68,3.92,3.92,0,0,1,1.3-.23,3.58,3.58,0,0,1,1.16.17,2.26,2.26,0,0,1,.8.46,1.79,1.79,0,0,1,.46.66,2,2,0,0,1,.15.77v3.15q0,0.33,0,.6c0,0.18,0,.36,0,0.52h-1q0-.47,0-0.94h0a2.23,2.23,0,0,1-.92.84,2.9,2.9,0,0,1-1.24.25,2.83,2.83,0,0,1-.82-0.12,2,2,0,0,1-.68-0.35,1.68,1.68,0,0,1-.46-0.58,1.8,1.8,0,0,1-.17-0.8,1.78,1.78,0,0,1,.27-1,2,2,0,0,1,.73-0.66,3.48,3.48,0,0,1,1.08-.36,7.52,7.52,0,0,1,1.32-.11h0.86v-0.26a1.29,1.29,0,0,0-.09-0.47,1.26,1.26,0,0,0-.27-0.42,1.29,1.29,0,0,0-.46-0.3,1.72,1.72,0,0,0-.65-0.11,2.37,2.37,0,0,0-.59.07,2.56,2.56,0,0,0-.46.16,2,2,0,0,0-.38.23l-0.33.25Zm3.3,2.44a8.22,8.22,0,0,0-.85,0,3.36,3.36,0,0,0-.79.17,1.54,1.54,0,0,0-.58.37,0.82,0.82,0,0,0-.23.6,0.85,0.85,0,0,0,.36.77,1.75,1.75,0,0,0,1,.23,1.86,1.86,0,0,0,.82-0.16,1.52,1.52,0,0,0,.55-0.42,1.65,1.65,0,0,0,.3-0.58,2.3,2.3,0,0,0,.09-0.63v-0.39h-0.62Z" transform="translate(-289.31 -154.42)"/><path class="cls-3" d="M420.16,172.36h1.17v4.55h0a2.13,2.13,0,0,1,.9-0.76,2.87,2.87,0,0,1,1.25-.28,3.26,3.26,0,0,1,1.29.25,2.9,2.9,0,0,1,1,.68,3,3,0,0,1,.63,1,3.63,3.63,0,0,1,.22,1.28,3.58,3.58,0,0,1-.22,1.27,3.12,3.12,0,0,1-.63,1,2.86,2.86,0,0,1-1,.69,3.26,3.26,0,0,1-1.29.25,2.88,2.88,0,0,1-1.22-.27,2.22,2.22,0,0,1-.93-0.77h0v0.88h-1.17v-9.83Zm3.2,8.89a2.1,2.1,0,0,0,.84-0.16,1.85,1.85,0,0,0,.64-0.44,2,2,0,0,0,.4-0.68,2.68,2.68,0,0,0,0-1.73,1.94,1.94,0,0,0-.4-0.68,1.88,1.88,0,0,0-.64-0.44,2.28,2.28,0,0,0-1.69,0,1.88,1.88,0,0,0-.64.44,2,2,0,0,0-.4.68,2.69,2.69,0,0,0,0,1.73,2,2,0,0,0,.4.68,1.85,1.85,0,0,0,.64.44A2.1,2.1,0,0,0,423.35,181.25Z" transform="translate(-289.31 -154.42)"/><path class="cls-3" d="M433.56,182.19h-1.17v-0.95h0a1.72,1.72,0,0,1-.77.8,2.53,2.53,0,0,1-1.26.31,2.69,2.69,0,0,1-.86-0.14,1.94,1.94,0,0,1-.71-0.42,2,2,0,0,1-.49-0.74,2.8,2.8,0,0,1-.18-1.06v-4h1.17v3.64a2.05,2.05,0,0,0,.12.73,1.34,1.34,0,0,0,.31.49,1.16,1.16,0,0,0,.45.27,1.64,1.64,0,0,0,.53.08,1.91,1.91,0,0,0,.68-0.12,1.4,1.4,0,0,0,.55-0.37,1.76,1.76,0,0,0,.36-0.64,2.94,2.94,0,0,0,.13-0.92V176h1.17v6.16Z" transform="translate(-289.31 -154.42)"/><path class="cls-3" d="M438.6,177.58a1.79,1.79,0,0,0-.51-0.44,1.48,1.48,0,0,0-.75-0.18,1.42,1.42,0,0,0-.72.18,0.56,0.56,0,0,0-.31.51,0.59,0.59,0,0,0,.18.44,1.38,1.38,0,0,0,.42.27,2.46,2.46,0,0,0,.51.16l0.47,0.09a5.5,5.5,0,0,1,.71.22,2,2,0,0,1,.57.34,1.47,1.47,0,0,1,.38.51,1.75,1.75,0,0,1,.14.73,1.71,1.71,0,0,1-.22.89,1.86,1.86,0,0,1-.57.6,2.38,2.38,0,0,1-.8.34,3.93,3.93,0,0,1-.9.1,3.57,3.57,0,0,1-1.35-.23,2.43,2.43,0,0,1-1-.86l0.88-.73a3.6,3.6,0,0,0,.64.51,1.57,1.57,0,0,0,.86.22,2.22,2.22,0,0,0,.45,0,1.37,1.37,0,0,0,.4-0.14,0.88,0.88,0,0,0,.29-0.25,0.56,0.56,0,0,0,.11-0.34,0.6,0.6,0,0,0-.16-0.43,1.18,1.18,0,0,0-.39-0.27,2.9,2.9,0,0,0-.48-0.16l-0.45-.1c-0.25-.06-0.49-0.13-0.71-0.21a2.18,2.18,0,0,1-.6-0.31,1.44,1.44,0,0,1-.42-0.49,1.59,1.59,0,0,1-.16-0.74,1.67,1.67,0,0,1,.2-0.84,1.8,1.8,0,0,1,.53-0.59,2.43,2.43,0,0,1,.75-0.35,3.18,3.18,0,0,1,.85-0.12,3.13,3.13,0,0,1,1.2.23,1.89,1.89,0,0,1,.91.78Z" transform="translate(-289.31 -154.42)"/><path class="cls-3" d="M440.92,173.82a0.86,0.86,0,1,1,.25.61A0.82,0.82,0,0,1,440.92,173.82Zm0.27,2.21h1.17v6.16h-1.17V176Z" transform="translate(-289.31 -154.42)"/><path class="cls-3" d="M444.22,176h1.17V177h0a1.73,1.73,0,0,1,.77-0.8,2.54,2.54,0,0,1,1.26-.3,2.65,2.65,0,0,1,.85.14,1.92,1.92,0,0,1,.71.42,2,2,0,0,1,.49.73,2.82,2.82,0,0,1,.18,1.06v4h-1.17v-3.64a2.07,2.07,0,0,0-.12-0.73,1.35,1.35,0,0,0-.31-0.49,1.18,1.18,0,0,0-.45-0.27,1.67,1.67,0,0,0-.53-0.08,1.9,1.9,0,0,0-.68.12,1.4,1.4,0,0,0-.55.37,1.74,1.74,0,0,0-.36.64,2.92,2.92,0,0,0-.13.92v3.17h-1.17V176Z" transform="translate(-289.31 -154.42)"/><path class="cls-3" d="M452.33,179.54a1.55,1.55,0,0,0,.18.73,1.83,1.83,0,0,0,.46.57,2.14,2.14,0,0,0,.66.36,2.4,2.4,0,0,0,.78.13,1.75,1.75,0,0,0,.95-0.25,3.08,3.08,0,0,0,.74-0.67l0.88,0.68a3.25,3.25,0,0,1-2.73,1.26,3.38,3.38,0,0,1-1.32-.25,2.86,2.86,0,0,1-1-.68,3,3,0,0,1-.63-1,3.63,3.63,0,0,1-.22-1.28,3.36,3.36,0,0,1,.24-1.28,3.17,3.17,0,0,1,.66-1,3,3,0,0,1,1-.68,3.23,3.23,0,0,1,1.27-.25,3.06,3.06,0,0,1,1.38.29,2.76,2.76,0,0,1,.93.75,3,3,0,0,1,.53,1,4.33,4.33,0,0,1,.16,1.18v0.42h-4.94Zm3.69-.94a2.47,2.47,0,0,0-.12-0.72,1.58,1.58,0,0,0-.33-0.57,1.54,1.54,0,0,0-.55-0.38,2,2,0,0,0-.77-0.14,1.89,1.89,0,0,0-.79.16,1.93,1.93,0,0,0-1,1,1.59,1.59,0,0,0-.14.63H456Z" transform="translate(-289.31 -154.42)"/><path class="cls-3" d="M462,177.58a1.79,1.79,0,0,0-.51-0.44,1.48,1.48,0,0,0-.75-0.18,1.42,1.42,0,0,0-.72.18,0.56,0.56,0,0,0-.31.51,0.59,0.59,0,0,0,.18.44,1.38,1.38,0,0,0,.42.27,2.46,2.46,0,0,0,.51.16l0.47,0.09a5.5,5.5,0,0,1,.71.22,2,2,0,0,1,.57.34,1.47,1.47,0,0,1,.38.51,1.75,1.75,0,0,1,.14.73,1.71,1.71,0,0,1-.22.89,1.86,1.86,0,0,1-.57.6,2.38,2.38,0,0,1-.8.34,3.93,3.93,0,0,1-.9.1,3.57,3.57,0,0,1-1.35-.23,2.43,2.43,0,0,1-1-.86l0.88-.73a3.6,3.6,0,0,0,.64.51,1.57,1.57,0,0,0,.86.22,2.22,2.22,0,0,0,.45,0,1.37,1.37,0,0,0,.4-0.14,0.88,0.88,0,0,0,.29-0.25,0.56,0.56,0,0,0,.11-0.34,0.6,0.6,0,0,0-.16-0.43,1.18,1.18,0,0,0-.39-0.27,2.9,2.9,0,0,0-.48-0.16l-0.45-.1c-0.25-.06-0.49-0.13-0.71-0.21A2.18,2.18,0,0,1,459,179a1.44,1.44,0,0,1-.42-0.49,1.59,1.59,0,0,1-.16-0.74,1.67,1.67,0,0,1,.2-0.84,1.8,1.8,0,0,1,.53-0.59,2.43,2.43,0,0,1,.75-0.35,3.18,3.18,0,0,1,.85-0.12,3.13,3.13,0,0,1,1.2.23,1.89,1.89,0,0,1,.91.78Z" transform="translate(-289.31 -154.42)"/><path class="cls-3" d="M467.72,177.58a1.79,1.79,0,0,0-.51-0.44,1.48,1.48,0,0,0-.75-0.18,1.42,1.42,0,0,0-.72.18,0.56,0.56,0,0,0-.31.51,0.59,0.59,0,0,0,.18.44,1.38,1.38,0,0,0,.42.27,2.46,2.46,0,0,0,.51.16l0.47,0.09a5.5,5.5,0,0,1,.71.22,2,2,0,0,1,.57.34,1.47,1.47,0,0,1,.38.51,1.75,1.75,0,0,1,.14.73,1.71,1.71,0,0,1-.22.89,1.86,1.86,0,0,1-.57.6,2.38,2.38,0,0,1-.8.34,3.93,3.93,0,0,1-.9.1,3.57,3.57,0,0,1-1.35-.23,2.43,2.43,0,0,1-1-.86l0.88-.73a3.6,3.6,0,0,0,.64.51,1.57,1.57,0,0,0,.86.22,2.22,2.22,0,0,0,.45,0,1.37,1.37,0,0,0,.4-0.14,0.88,0.88,0,0,0,.29-0.25,0.56,0.56,0,0,0,.11-0.34,0.6,0.6,0,0,0-.16-0.43,1.18,1.18,0,0,0-.39-0.27,2.9,2.9,0,0,0-.48-0.16l-0.45-.1c-0.25-.06-0.49-0.13-0.71-0.21a2.18,2.18,0,0,1-.6-0.31,1.44,1.44,0,0,1-.42-0.49,1.59,1.59,0,0,1-.16-0.74,1.67,1.67,0,0,1,.2-0.84,1.8,1.8,0,0,1,.53-0.59,2.43,2.43,0,0,1,.75-0.35,3.18,3.18,0,0,1,.85-0.12,3.13,3.13,0,0,1,1.2.23,1.89,1.89,0,0,1,.91.78Z" transform="translate(-289.31 -154.42)"/><path class="cls-3" d="M367,184.36h1.17V189h0a1.73,1.73,0,0,1,.77-0.8,2.54,2.54,0,0,1,1.26-.3,2.65,2.65,0,0,1,.85.14,1.92,1.92,0,0,1,.71.42,2,2,0,0,1,.49.73,2.82,2.82,0,0,1,.18,1.06v4h-1.17v-3.64a2.07,2.07,0,0,0-.12-0.73,1.35,1.35,0,0,0-.31-0.49,1.18,1.18,0,0,0-.45-0.27,1.67,1.67,0,0,0-.53-0.08,1.9,1.9,0,0,0-.68.12,1.4,1.4,0,0,0-.55.37,1.74,1.74,0,0,0-.36.64,2.92,2.92,0,0,0-.13.92v3.17H367v-9.83Z" transform="translate(-289.31 -154.42)"/><path class="cls-3" d="M373.54,188h1.35l1.82,4.81h0L378.5,188h1.25l-2.92,7.49q-0.16.4-.32,0.73a2.2,2.2,0,0,1-.4.56,1.64,1.64,0,0,1-.56.37,2.23,2.23,0,0,1-.81.13,4.36,4.36,0,0,1-.52,0,1.93,1.93,0,0,1-.51-0.14l0.14-1.07a1.82,1.82,0,0,0,.7.14,1.29,1.29,0,0,0,.46-0.07,0.91,0.91,0,0,0,.32-0.21,1.2,1.2,0,0,0,.23-0.32q0.09-.18.18-0.42l0.38-1Z" transform="translate(-289.31 -154.42)"/><path class="cls-3" d="M380.77,188h1.17v0.88h0a2.23,2.23,0,0,1,.93-0.77,2.86,2.86,0,0,1,1.22-.27,3.26,3.26,0,0,1,1.29.25,2.86,2.86,0,0,1,1,.69,3.11,3.11,0,0,1,.63,1,3.6,3.6,0,0,1,.22,1.27,3.64,3.64,0,0,1-.22,1.28,3,3,0,0,1-.63,1,2.9,2.9,0,0,1-1,.68,3.26,3.26,0,0,1-1.29.25,2.86,2.86,0,0,1-1.25-.28,2.14,2.14,0,0,1-.9-0.76h0v4.55h-1.17V188ZM384,189a2.13,2.13,0,0,0-.85.16,1.88,1.88,0,0,0-.64.44,2,2,0,0,0-.4.68,2.69,2.69,0,0,0,0,1.73,2,2,0,0,0,.4.68,1.85,1.85,0,0,0,.64.44,2.27,2.27,0,0,0,1.69,0,1.85,1.85,0,0,0,.64-0.44,2,2,0,0,0,.4-0.68,2.68,2.68,0,0,0,0-1.73,1.94,1.94,0,0,0-.4-0.68,1.88,1.88,0,0,0-.64-0.44A2.13,2.13,0,0,0,384,189Z" transform="translate(-289.31 -154.42)"/><path class="cls-3" d="M388.42,191.11a3.13,3.13,0,0,1,.25-1.26,3.28,3.28,0,0,1,.7-1,3.31,3.31,0,0,1,4.65,0,3.29,3.29,0,0,1,.7,1,3.12,3.12,0,0,1,.25,1.26,3.21,3.21,0,0,1-.95,2.29,3.29,3.29,0,0,1-2.33.94,3.29,3.29,0,0,1-2.33-.94A3.2,3.2,0,0,1,388.42,191.11Zm1.25,0a2.53,2.53,0,0,0,.14.87,2,2,0,0,0,.4.68,1.85,1.85,0,0,0,.64.44,2.27,2.27,0,0,0,1.69,0,1.85,1.85,0,0,0,.64-0.44,2,2,0,0,0,.4-0.68,2.68,2.68,0,0,0,0-1.73,2,2,0,0,0-.4-0.68,1.88,1.88,0,0,0-.64-0.44,2.28,2.28,0,0,0-1.69,0,1.88,1.88,0,0,0-.64.44,1.94,1.94,0,0,0-.4.68A2.51,2.51,0,0,0,389.67,191.11Z" transform="translate(-289.31 -154.42)"/><path class="cls-3" d="M399.74,189h-1.68v2.79c0,0.17,0,.34,0,0.51a1.35,1.35,0,0,0,.1.46,0.73,0.73,0,0,0,.26.32,0.88,0.88,0,0,0,.51.12,2.43,2.43,0,0,0,.43,0,1.23,1.23,0,0,0,.4-0.14v1.07a1.5,1.5,0,0,1-.54.16,3.9,3.9,0,0,1-.51,0,2.35,2.35,0,0,1-1-.19,1.27,1.27,0,0,1-.55-0.49,1.57,1.57,0,0,1-.21-0.67c0-.25,0-0.5,0-0.75V189h-1.35v-1h1.35V186.3h1.17V188h1.68v1Z" transform="translate(-289.31 -154.42)"/><path class="cls-3" d="M401.25,184.36h1.17V189h0a1.73,1.73,0,0,1,.77-0.8,2.54,2.54,0,0,1,1.26-.3,2.65,2.65,0,0,1,.85.14,1.92,1.92,0,0,1,.71.42,2,2,0,0,1,.49.73,2.82,2.82,0,0,1,.18,1.06v4h-1.17v-3.64a2.07,2.07,0,0,0-.12-0.73,1.35,1.35,0,0,0-.31-0.49,1.18,1.18,0,0,0-.45-0.27,1.67,1.67,0,0,0-.53-0.08,1.9,1.9,0,0,0-.68.12,1.4,1.4,0,0,0-.55.37,1.74,1.74,0,0,0-.36.64,2.92,2.92,0,0,0-.13.92v3.17h-1.17v-9.83Z" transform="translate(-289.31 -154.42)"/><path class="cls-3" d="M409.36,191.54a1.55,1.55,0,0,0,.18.73,1.83,1.83,0,0,0,.46.57,2.14,2.14,0,0,0,.66.36,2.4,2.4,0,0,0,.78.13,1.75,1.75,0,0,0,.95-0.25,3.08,3.08,0,0,0,.74-0.67l0.88,0.68a3.25,3.25,0,0,1-2.73,1.26,3.38,3.38,0,0,1-1.32-.25,2.86,2.86,0,0,1-1-.68,3,3,0,0,1-.63-1,3.63,3.63,0,0,1-.22-1.28,3.36,3.36,0,0,1,.24-1.28,3.17,3.17,0,0,1,.66-1,3,3,0,0,1,1-.68,3.23,3.23,0,0,1,1.27-.25,3.06,3.06,0,0,1,1.38.29,2.76,2.76,0,0,1,.93.75,3,3,0,0,1,.53,1,4.33,4.33,0,0,1,.16,1.18v0.42h-4.94Zm3.69-.94a2.47,2.47,0,0,0-.12-0.72,1.58,1.58,0,0,0-.33-0.57,1.54,1.54,0,0,0-.55-0.38,2,2,0,0,0-.77-0.14,1.89,1.89,0,0,0-.79.16,1.93,1.93,0,0,0-1,1,1.59,1.59,0,0,0-.14.63h3.69Z" transform="translate(-289.31 -154.42)"/><path class="cls-3" d="M419,189.58a1.79,1.79,0,0,0-.51-0.44,1.48,1.48,0,0,0-.75-0.18,1.42,1.42,0,0,0-.72.18,0.56,0.56,0,0,0-.31.51,0.59,0.59,0,0,0,.18.44,1.38,1.38,0,0,0,.42.27,2.46,2.46,0,0,0,.51.16l0.47,0.09a5.5,5.5,0,0,1,.71.22,2,2,0,0,1,.57.34,1.47,1.47,0,0,1,.38.51,1.75,1.75,0,0,1,.14.73,1.71,1.71,0,0,1-.22.89,1.86,1.86,0,0,1-.57.6,2.38,2.38,0,0,1-.8.34,3.93,3.93,0,0,1-.9.1,3.57,3.57,0,0,1-1.35-.23,2.43,2.43,0,0,1-1-.86l0.88-.73a3.6,3.6,0,0,0,.64.51,1.57,1.57,0,0,0,.86.22,2.22,2.22,0,0,0,.45,0,1.37,1.37,0,0,0,.4-0.14,0.88,0.88,0,0,0,.29-0.25,0.56,0.56,0,0,0,.11-0.34,0.6,0.6,0,0,0-.16-0.43,1.18,1.18,0,0,0-.39-0.27,2.9,2.9,0,0,0-.48-0.16l-0.45-.1c-0.25-.06-0.49-0.13-0.71-0.21A2.18,2.18,0,0,1,416,191a1.44,1.44,0,0,1-.42-0.49,1.59,1.59,0,0,1-.16-0.74,1.67,1.67,0,0,1,.2-0.84,1.8,1.8,0,0,1,.53-0.59,2.43,2.43,0,0,1,.75-0.35,3.18,3.18,0,0,1,.85-0.12,3.13,3.13,0,0,1,1.2.23,1.89,1.89,0,0,1,.91.78Z" transform="translate(-289.31 -154.42)"/><path class="cls-3" d="M421.29,185.82a0.86,0.86,0,1,1,.25.61A0.82,0.82,0,0,1,421.29,185.82Zm0.27,2.21h1.17v6.16h-1.17V188Z" transform="translate(-289.31 -154.42)"/><path class="cls-3" d="M427.87,189.58a1.79,1.79,0,0,0-.51-0.44,1.48,1.48,0,0,0-.75-0.18,1.42,1.42,0,0,0-.72.18,0.56,0.56,0,0,0-.31.51,0.59,0.59,0,0,0,.18.44,1.38,1.38,0,0,0,.42.27,2.46,2.46,0,0,0,.51.16l0.47,0.09a5.5,5.5,0,0,1,.71.22,2,2,0,0,1,.57.34,1.47,1.47,0,0,1,.38.51,1.75,1.75,0,0,1,.14.73,1.71,1.71,0,0,1-.22.89,1.86,1.86,0,0,1-.57.6,2.38,2.38,0,0,1-.8.34,3.93,3.93,0,0,1-.9.1,3.57,3.57,0,0,1-1.35-.23,2.43,2.43,0,0,1-1-.86l0.88-.73a3.6,3.6,0,0,0,.64.51,1.57,1.57,0,0,0,.86.22,2.22,2.22,0,0,0,.45,0,1.37,1.37,0,0,0,.4-0.14,0.88,0.88,0,0,0,.29-0.25,0.56,0.56,0,0,0,.11-0.34,0.6,0.6,0,0,0-.16-0.43,1.18,1.18,0,0,0-.39-0.27,2.9,2.9,0,0,0-.48-0.16l-0.45-.1c-0.25-.06-0.49-0.13-0.71-0.21a2.18,2.18,0,0,1-.6-0.31,1.44,1.44,0,0,1-.42-0.49,1.59,1.59,0,0,1-.16-0.74,1.67,1.67,0,0,1,.2-0.84,1.8,1.8,0,0,1,.53-0.59,2.43,2.43,0,0,1,.75-0.35,3.18,3.18,0,0,1,.85-0.12,3.13,3.13,0,0,1,1.2.23,1.89,1.89,0,0,1,.91.78Z" transform="translate(-289.31 -154.42)"/><path class="cls-3" d="M437.28,189h-1.68v2.79c0,0.17,0,.34,0,0.51a1.35,1.35,0,0,0,.1.46,0.73,0.73,0,0,0,.26.32,0.88,0.88,0,0,0,.51.12,2.43,2.43,0,0,0,.43,0,1.23,1.23,0,0,0,.4-0.14v1.07a1.5,1.5,0,0,1-.54.16,3.9,3.9,0,0,1-.51,0,2.35,2.35,0,0,1-1-.19,1.27,1.27,0,0,1-.55-0.49,1.57,1.57,0,0,1-.21-0.67c0-.25,0-0.5,0-0.75V189h-1.35v-1h1.35V186.3h1.17V188h1.68v1Z" transform="translate(-289.31 -154.42)"/><path class="cls-3" d="M438.49,191.11a3.13,3.13,0,0,1,.25-1.26,3.28,3.28,0,0,1,.7-1,3.31,3.31,0,0,1,4.65,0,3.29,3.29,0,0,1,.7,1,3.12,3.12,0,0,1,.25,1.26,3.21,3.21,0,0,1-.95,2.29,3.29,3.29,0,0,1-2.33.94,3.29,3.29,0,0,1-2.33-.94A3.2,3.2,0,0,1,438.49,191.11Zm1.25,0a2.53,2.53,0,0,0,.14.87,2,2,0,0,0,.4.68,1.85,1.85,0,0,0,.64.44,2.27,2.27,0,0,0,1.69,0,1.85,1.85,0,0,0,.64-0.44,2,2,0,0,0,.4-0.68,2.68,2.68,0,0,0,0-1.73,2,2,0,0,0-.4-0.68,1.88,1.88,0,0,0-.64-0.44,2.28,2.28,0,0,0-1.69,0,1.88,1.88,0,0,0-.64.44,1.94,1.94,0,0,0-.4.68A2.51,2.51,0,0,0,439.74,191.11Z" transform="translate(-289.31 -154.42)"/><path class="cls-3" d="M453.43,189h-1.68v2.79c0,0.17,0,.34,0,0.51a1.35,1.35,0,0,0,.1.46,0.73,0.73,0,0,0,.26.32,0.88,0.88,0,0,0,.51.12,2.43,2.43,0,0,0,.43,0,1.23,1.23,0,0,0,.4-0.14v1.07a1.5,1.5,0,0,1-.54.16,3.9,3.9,0,0,1-.51,0,2.35,2.35,0,0,1-1-.19,1.27,1.27,0,0,1-.55-0.49,1.57,1.57,0,0,1-.21-0.67c0-.25,0-0.5,0-0.75V189h-1.35v-1h1.35V186.3h1.17V188h1.68v1Z" transform="translate(-289.31 -154.42)"/><path class="cls-3" d="M455.82,191.54a1.55,1.55,0,0,0,.18.73,1.83,1.83,0,0,0,.46.57,2.14,2.14,0,0,0,.66.36,2.4,2.4,0,0,0,.78.13,1.75,1.75,0,0,0,.95-0.25,3.08,3.08,0,0,0,.74-0.67l0.88,0.68a3.25,3.25,0,0,1-2.73,1.26,3.38,3.38,0,0,1-1.32-.25,2.86,2.86,0,0,1-1-.68,3,3,0,0,1-.63-1,3.63,3.63,0,0,1-.22-1.28,3.36,3.36,0,0,1,.24-1.28,3.17,3.17,0,0,1,.66-1,3,3,0,0,1,1-.68,3.23,3.23,0,0,1,1.27-.25,3.06,3.06,0,0,1,1.38.29,2.76,2.76,0,0,1,.93.75,3,3,0,0,1,.53,1,4.33,4.33,0,0,1,.16,1.18v0.42h-4.94Zm3.69-.94a2.47,2.47,0,0,0-.12-0.72,1.58,1.58,0,0,0-.33-0.57,1.54,1.54,0,0,0-.55-0.38,2,2,0,0,0-.77-0.14,1.89,1.89,0,0,0-.79.16,1.93,1.93,0,0,0-1,1,1.59,1.59,0,0,0-.14.63h3.69Z" transform="translate(-289.31 -154.42)"/><path class="cls-3" d="M465.44,189.58a1.79,1.79,0,0,0-.51-0.44,1.48,1.48,0,0,0-.75-0.18,1.42,1.42,0,0,0-.72.18,0.56,0.56,0,0,0-.31.51,0.59,0.59,0,0,0,.18.44,1.38,1.38,0,0,0,.42.27,2.46,2.46,0,0,0,.51.16l0.47,0.09a5.5,5.5,0,0,1,.71.22,2,2,0,0,1,.57.34,1.47,1.47,0,0,1,.38.51,1.75,1.75,0,0,1,.14.73,1.71,1.71,0,0,1-.22.89,1.86,1.86,0,0,1-.57.6,2.38,2.38,0,0,1-.8.34,3.93,3.93,0,0,1-.9.1,3.57,3.57,0,0,1-1.35-.23,2.43,2.43,0,0,1-1-.86l0.88-.73a3.6,3.6,0,0,0,.64.51,1.57,1.57,0,0,0,.86.22,2.22,2.22,0,0,0,.45,0,1.37,1.37,0,0,0,.4-0.14,0.88,0.88,0,0,0,.29-0.25,0.56,0.56,0,0,0,.11-0.34,0.6,0.6,0,0,0-.16-0.43,1.18,1.18,0,0,0-.39-0.27,2.9,2.9,0,0,0-.48-0.16l-0.45-.1c-0.25-.06-0.49-0.13-0.71-0.21a2.18,2.18,0,0,1-.6-0.31,1.44,1.44,0,0,1-.42-0.49,1.59,1.59,0,0,1-.16-0.74,1.67,1.67,0,0,1,.2-0.84,1.8,1.8,0,0,1,.53-0.59,2.43,2.43,0,0,1,.75-0.35,3.18,3.18,0,0,1,.85-0.12,3.13,3.13,0,0,1,1.2.23,1.89,1.89,0,0,1,.91.78Z" transform="translate(-289.31 -154.42)"/><path class="cls-3" d="M471.24,189h-1.68v2.79c0,0.17,0,.34,0,0.51a1.35,1.35,0,0,0,.1.46,0.73,0.73,0,0,0,.26.32,0.88,0.88,0,0,0,.51.12,2.43,2.43,0,0,0,.43,0,1.23,1.23,0,0,0,.4-0.14v1.07a1.5,1.5,0,0,1-.54.16,3.9,3.9,0,0,1-.51,0,2.35,2.35,0,0,1-1-.19,1.27,1.27,0,0,1-.55-0.49,1.57,1.57,0,0,1-.21-0.67c0-.25,0-0.5,0-0.75V189H467v-1h1.35V186.3h1.17V188h1.68v1Z" transform="translate(-289.31 -154.42)"/><path class="cls-3" d="M474.59,191.62v-0.79a2.73,2.73,0,0,1,.05-0.59,1.57,1.57,0,0,1,.16-0.42,1.64,1.64,0,0,1,.28-0.36l0.44-.42,0.42-.4a4,4,0,0,0,.38-0.42,2.22,2.22,0,0,0,.28-0.46,1.28,1.28,0,0,0,.11-0.54,1.38,1.38,0,0,0-.11-0.55,1.43,1.43,0,0,0-.29-0.44,1.32,1.32,0,0,0-.44-0.29,1.41,1.41,0,0,0-.54-0.1,1.39,1.39,0,0,0-1,.4,1.75,1.75,0,0,0-.47,1.05l-1.33-.13a2.74,2.74,0,0,1,.94-1.77,2.89,2.89,0,0,1,1.92-.64,3.1,3.1,0,0,1,1,.16,2.44,2.44,0,0,1,.83.47,2.16,2.16,0,0,1,.55.75,2.48,2.48,0,0,1,.2,1,2.4,2.4,0,0,1-.14.86,2.6,2.6,0,0,1-.4.7l-0.78.81-0.13.12-0.33.33a1.18,1.18,0,0,0-.19.29,1.14,1.14,0,0,0-.1.33,3.27,3.27,0,0,0,0,.46v0.57h-1.25Zm-0.25,1.79a0.87,0.87,0,1,1,.25.6A0.82,0.82,0,0,1,474.35,193.41Z" transform="translate(-289.31 -154.42)"/><line class="cls-4" x1="129.19" y1="73.5" x2="129.19" y2="58.79"/><polyline class="cls-1" points="0.58 29.93 3.36 29.93 65.69 29.93"/><line class="cls-1" x1="264.35" y1="29.93" x2="199.23" y2="29.93"/><line class="cls-5" x1="118.36" y1="85" x2="1.65" y2="63.9"/><polyline class="cls-6" points="253.24 18.13 261.52 30.43 253.24 41.63"/><polygon class="cls-6" points="3.26 73.19 0.57 63.35 8.44 57.88 3.26 73.19"/><polyline class="cls-6" points="56.43 17.69 64.72 29.99 56.43 41.19"/><circle class="cls-7" cx="128.95" cy="86.01" r="13.42"/><path class="cls-8" d="M411.92,236.92h1.17l4.51,6.47h0v-6.47h0.92v7.79h-1.17l-4.51-6.47h0v6.47h-0.92v-7.79Z" transform="translate(-289.31 -154.42)"/><path class="cls-8" d="M420,242.13a2.79,2.79,0,0,1,.21-1.1,2.6,2.6,0,0,1,.57-0.85,2.54,2.54,0,0,1,.87-0.56,3.15,3.15,0,0,1,2.2,0,2.54,2.54,0,0,1,.87.56,2.6,2.6,0,0,1,.57.85,3,3,0,0,1,0,2.2,2.6,2.6,0,0,1-.57.85,2.54,2.54,0,0,1-.87.55,3.15,3.15,0,0,1-2.2,0,2.54,2.54,0,0,1-.87-0.55,2.6,2.6,0,0,1-.57-0.85A2.8,2.8,0,0,1,420,242.13Zm0.92,0a2.18,2.18,0,0,0,.13.75,1.74,1.74,0,0,0,.95,1,2,2,0,0,0,1.51,0,1.74,1.74,0,0,0,.95-1,2.31,2.31,0,0,0,0-1.51,1.75,1.75,0,0,0-.37-0.61,1.77,1.77,0,0,0-.58-0.41,2,2,0,0,0-1.51,0,1.74,1.74,0,0,0-.95,1A2.17,2.17,0,0,0,421,242.13Z" transform="translate(-289.31 -154.42)"/><circle class="cls-7" cx="226.52" cy="30.43" r="13.42"/><path class="cls-8" d="M510.58,185l-2.9-4.43h1.18l2.19,3.52,2.25-3.52h1.11L511.5,185v3.36h-0.92V185Z" transform="translate(-289.31 -154.42)"/><path class="cls-8" d="M518.5,187.43a2.61,2.61,0,0,1-1,.83,3.22,3.22,0,0,1-1.28.24,2.67,2.67,0,0,1-1.09-.21,2.46,2.46,0,0,1-.82-0.58,2.53,2.53,0,0,1-.52-0.86,3,3,0,0,1-.18-1.06,3,3,0,0,1,.2-1.09,2.54,2.54,0,0,1,.55-0.86,2.47,2.47,0,0,1,.84-0.56,2.77,2.77,0,0,1,1.06-.2,2.63,2.63,0,0,1,1,.18,2.14,2.14,0,0,1,.78.53,2.37,2.37,0,0,1,.5.85,3.43,3.43,0,0,1,.18,1.14v0.28h-4.16a1.8,1.8,0,0,0,.16.63,1.82,1.82,0,0,0,.36.53,1.64,1.64,0,0,0,.52.36,1.58,1.58,0,0,0,.65.13,2,2,0,0,0,.95-0.2,2.15,2.15,0,0,0,.69-0.58Zm-0.74-2.1a1.48,1.48,0,0,0-.43-1.06,1.54,1.54,0,0,0-1.12-.4,1.59,1.59,0,0,0-1.68,1.45h3.23Z" transform="translate(-289.31 -154.42)"/><path class="cls-8" d="M520.12,187a2.19,2.19,0,0,0,.56.51,1.44,1.44,0,0,0,.76.19,1.9,1.9,0,0,0,.4,0,1.22,1.22,0,0,0,.37-0.14,0.81,0.81,0,0,0,.26-0.25,0.62,0.62,0,0,0,.1-0.36,0.58,0.58,0,0,0-.09-0.34,0.83,0.83,0,0,0-.25-0.23,1.41,1.41,0,0,0-.35-0.15l-0.41-.1q-0.36-.08-0.69-0.18a2.23,2.23,0,0,1-.58-0.26,1.22,1.22,0,0,1-.4-0.41,1.27,1.27,0,0,1-.15-0.65,1.3,1.3,0,0,1,.17-0.66,1.42,1.42,0,0,1,.44-0.47,2.13,2.13,0,0,1,.62-0.29,2.5,2.5,0,0,1,.7-0.1,2.35,2.35,0,0,1,1,.22,1.58,1.58,0,0,1,.73.71l-0.72.47a1.32,1.32,0,0,0-.43-0.45,1.2,1.2,0,0,0-.65-0.17,1.52,1.52,0,0,0-.36,0,1.09,1.09,0,0,0-.32.13,0.78,0.78,0,0,0-.24.22,0.54,0.54,0,0,0-.09.31,0.4,0.4,0,0,0,.1.28,0.92,0.92,0,0,0,.29.2,2.5,2.5,0,0,0,.42.15l0.49,0.11a5,5,0,0,1,.65.17,1.88,1.88,0,0,1,.54.28,1.25,1.25,0,0,1,.36.44,1.44,1.44,0,0,1,.13.65,1.48,1.48,0,0,1-.18.75,1.45,1.45,0,0,1-.47.5,2.06,2.06,0,0,1-.66.28,3.24,3.24,0,0,1-.75.09,2.9,2.9,0,0,1-1.14-.2,2.06,2.06,0,0,1-.86-0.75Z" transform="translate(-289.31 -154.42)"/></svg>